<svg width="81" height="80" viewBox="0 0 81 80" fill="none" xmlns="http://www.w3.org/2000/svg">
<path d="M8.89465 11.25H28.8794C29.2107 11.25 29.5284 11.1183 29.7626 10.8839C29.9969 10.6495 30.1285 10.3315 30.1285 10C30.1285 9.66848 29.9969 9.35054 29.7626 9.11612C29.5284 8.8817 29.2107 8.75 28.8794 8.75H8.89465C8.56339 8.75 8.24569 8.8817 8.01144 9.11612C7.7772 9.35054 7.64561 9.66848 7.64561 10C7.64561 10.3315 7.7772 10.6495 8.01144 10.8839C8.24569 11.1183 8.56339 11.25 8.89465 11.25ZM71.3471 13.75H56.3585C56.0272 13.75 55.7095 13.8817 55.4753 14.1161C55.241 14.3505 55.1094 14.6685 55.1094 15C55.1094 15.3315 55.241 15.6495 55.4753 15.8839C55.7095 16.1183 56.0272 16.25 56.3585 16.25H71.3471C71.6783 16.25 71.996 16.1183 72.2303 15.8839C72.4645 15.6495 72.5961 15.3315 72.5961 15C72.5961 14.6685 72.4645 14.3505 72.2303 14.1161C71.996 13.8817 71.6783 13.75 71.3471 13.75ZM71.3471 18.75H56.3585C56.0272 18.75 55.7095 18.8817 55.4753 19.1161C55.241 19.3505 55.1094 19.6685 55.1094 20C55.1094 20.3315 55.241 20.6495 55.4753 20.8839C55.7095 21.1183 56.0272 21.25 56.3585 21.25H71.3471C71.6783 21.25 71.996 21.1183 72.2303 20.8839C72.4645 20.6495 72.5961 20.3315 72.5961 20C72.5961 19.6685 72.4645 19.3505 72.2303 19.1161C71.996 18.8817 71.6783 18.75 71.3471 18.75ZM8.89465 16.25H28.8794C29.2107 16.25 29.5284 16.1183 29.7626 15.8839C29.9969 15.6495 30.1285 15.3315 30.1285 15C30.1285 14.6685 29.9969 14.3505 29.7626 14.1161C29.5284 13.8817 29.2107 13.75 28.8794 13.75H8.89465C8.56339 13.75 8.24569 13.8817 8.01144 14.1161C7.7772 14.3505 7.64561 14.6685 7.64561 15C7.64561 15.3315 7.7772 15.6495 8.01144 15.8839C8.24569 16.1183 8.56339 16.25 8.89465 16.25ZM21.3851 21.25C21.7164 21.25 22.0341 21.1183 22.2683 20.8839C22.5026 20.6495 22.6342 20.3315 22.6342 20C22.6342 19.6685 22.5026 19.3505 22.2683 19.1161C22.0341 18.8817 21.7164 18.75 21.3851 18.75H8.89465C8.56339 18.75 8.24569 18.8817 8.01144 19.1161C7.7772 19.3505 7.64561 19.6685 7.64561 20C7.64561 20.3315 7.7772 20.6495 8.01144 20.8839C8.24569 21.1183 8.56339 21.25 8.89465 21.25H21.3851ZM36.3737 76.25C36.705 76.25 37.0227 76.1183 37.2569 75.8839C37.4912 75.6495 37.6228 75.3315 37.6228 75V67.6675C37.6228 65.4375 36.4362 63.3425 34.5276 62.1975L28.6396 58.6625L26.4538 56.235C26.2886 56.0642 26.0779 55.9444 25.8467 55.89V53.8725C26.8744 53.0359 27.7037 51.9814 28.2748 50.7852C28.8459 49.589 29.1446 48.2808 29.1492 46.955V43.8L30.5007 37.535C30.6169 36.9065 30.6063 36.2612 30.4694 35.6369C30.3325 35.0126 30.0722 34.422 29.7038 33.9C29.3375 33.3766 28.8704 32.9319 28.3298 32.5918C27.7893 32.2518 27.1862 32.0234 26.5562 31.92L18.1476 30.515C16.9445 30.31 15.7089 30.5796 14.7004 31.2673C13.6918 31.9549 12.9889 33.007 12.7392 34.2025C11.7205 34.4954 10.8528 35.168 10.3147 36.0819C9.77653 36.9957 9.60896 38.0812 9.84643 39.115L11.1305 43.805V46.9525C11.1305 49.745 12.4345 52.215 14.4329 53.87V55.8925C14.2047 55.9462 13.9967 56.0642 13.8334 56.2325L11.6775 58.63L5.74456 62.2C4.80285 62.7686 4.02338 63.5703 3.48126 64.528C2.93914 65.4856 2.65265 66.5669 2.64941 67.6675V75C2.64941 75.3315 2.78101 75.6495 3.01525 75.8839C3.24949 76.1183 3.56719 76.25 3.89846 76.25C4.22973 76.25 4.54743 76.1183 4.78167 75.8839C5.01591 75.6495 5.14751 75.3315 5.14751 75V67.6675C5.14751 66.3125 5.86946 65.0375 7.02858 64.3425L12.1597 61.26L14.9001 64.69C15.0101 64.8272 15.1476 64.9397 15.3038 65.0202C15.4601 65.1007 15.6314 65.1475 15.8069 65.1575L15.8768 65.16C16.208 65.1587 16.5254 65.0277 16.7612 64.795L18.877 62.6775V75C18.877 75.3315 19.0086 75.6495 19.2429 75.8839C19.4771 76.1183 19.7948 76.25 20.1261 76.25C20.4574 76.25 20.7751 76.1183 21.0093 75.8839C21.2435 75.6495 21.3751 75.3315 21.3751 75V62.63L23.536 64.7925C23.6522 64.9085 23.7901 65.0005 23.9419 65.0631C24.0936 65.1257 24.2562 65.1578 24.4203 65.1575L24.4903 65.155C24.6658 65.1456 24.8374 65.0991 24.9938 65.0185C25.1501 64.938 25.2875 64.8251 25.3971 64.6875L28.13 61.2675L33.2461 64.34C34.4027 65.04 35.1247 66.3125 35.1247 67.6675V75C35.1247 75.3315 35.2563 75.6495 35.4905 75.8839C35.7247 76.1183 36.0424 76.25 36.3737 76.25ZM12.6043 37.1525C12.7575 36.9627 12.9513 36.8096 13.1713 36.7045C13.3913 36.5994 13.632 36.5449 13.8759 36.545C14.5653 36.545 15.1249 35.89 15.1249 35.2C15.1254 34.8741 15.1965 34.5522 15.3335 34.2566C15.4705 33.9609 15.67 33.6986 15.9183 33.4877C16.1665 33.2768 16.4576 33.1225 16.7714 33.0352C17.0851 32.948 17.414 32.93 17.7354 32.9825L26.144 34.3875C26.4473 34.4373 26.7376 34.5475 26.9976 34.7115C27.2577 34.8755 27.4822 35.0901 27.6579 35.3425C27.8324 35.5872 27.9569 35.8641 28.0242 36.1571C28.0915 36.4501 28.1003 36.7536 28.0501 37.05L27.2332 40.83L26.7361 40.21V38.8675C26.7361 38.536 26.6045 38.218 26.3702 37.9836C26.136 37.7492 25.8183 37.6175 25.487 37.6175H14.7952C14.4639 37.6175 14.1462 37.7492 13.9119 37.9836C13.6777 38.218 13.5461 38.536 13.5461 38.8675V40.2125L12.9441 40.9625L12.2771 38.525C12.2259 38.2863 12.2288 38.0391 12.2854 37.8017C12.342 37.5642 12.451 37.3424 12.6043 37.1525ZM13.631 46.9525V44.095L15.7669 41.4325C15.9445 41.2104 16.0414 40.9345 16.0417 40.65V40.115H24.2405V40.65C24.2405 40.935 24.3379 41.2125 24.5177 41.4325L26.6511 44.085V46.9525C26.6511 50.5475 23.7308 53.4675 20.1411 53.4675C16.5513 53.4675 13.631 50.5475 13.631 46.9525ZM20.1436 55.97C21.2777 55.97 22.3519 55.735 23.3511 55.3525V56.7275L20.1461 58.255L16.9335 56.725V55.355C17.9353 55.735 19.0094 55.97 20.1436 55.97ZM15.9793 62.0375L14.0982 59.6825L15.0699 58.6025L18.0102 60.005L15.9793 62.0375ZM24.3129 62.0375L22.282 60.005L25.2222 58.6L26.1965 59.685L24.3129 62.0375Z" fill="#EADEDA"/>
<path d="M10.3885 76.25C10.7198 76.25 11.0375 76.1183 11.2717 75.8839C11.506 75.6495 11.6375 75.3315 11.6375 75V72.16C11.6375 70.5625 11.0455 69.035 9.97132 67.8575L8.90463 66.6875C8.68102 66.4425 8.36933 66.2965 8.03811 66.2815C7.70689 66.2665 7.38328 66.3838 7.13848 66.6075C6.89367 66.8313 6.74772 67.1432 6.73273 67.4747C6.71773 67.8062 6.83493 68.13 7.05854 68.375L8.12522 69.545C8.77973 70.2625 9.13945 71.19 9.13945 72.1625V75C9.13945 75.3315 9.27105 75.6495 9.50529 75.8839C9.73953 76.1183 10.0572 76.25 10.3885 76.25ZM31.37 66.69L30.3033 67.86C29.2289 69.0346 28.6342 70.5701 28.6371 72.1625V75C28.6371 75.3315 28.7687 75.6495 29.0029 75.8839C29.2372 76.1183 29.5549 76.25 29.8861 76.25C30.2174 76.25 30.5351 76.1183 30.7693 75.8839C31.0036 75.6495 31.1352 75.3315 31.1352 75V72.16C31.1352 71.1875 31.4949 70.26 32.1494 69.5425L33.2161 68.3725C33.3325 68.2523 33.4235 68.1099 33.4839 67.9538C33.5442 67.7977 33.5726 67.631 33.5674 67.4637C33.5622 67.2964 33.5234 67.1318 33.4534 66.9798C33.3834 66.8277 33.2837 66.6913 33.16 66.5786C33.0363 66.4659 32.8913 66.3792 32.7335 66.3236C32.5757 66.2681 32.4084 66.2448 32.2414 66.2552C32.0745 66.2656 31.9113 66.3094 31.7616 66.3841C31.6119 66.4588 31.4788 66.5629 31.37 66.69ZM76.3432 76.25C76.6745 76.25 76.9922 76.1183 77.2264 75.8839C77.4607 75.6495 77.5923 75.3315 77.5923 75V68.79C77.5923 66.3075 76.3357 64.04 74.2273 62.7225L65.7688 57.455V54.2C66.6913 53.3994 67.4318 52.4105 67.9407 51.2997C68.4495 50.1889 68.7149 48.982 68.719 47.76V46.4225L68.9289 46.075C69.5002 44.8297 69.795 43.4753 69.7932 42.105C69.7932 38.475 67.7323 35.3525 64.7446 33.745C64.9294 33.3 65.0393 32.835 65.0393 32.355C65.0393 30.04 62.8285 28.155 60.1081 28.155C57.3877 28.155 55.1769 30.04 55.1769 32.355C55.1769 32.89 55.2993 33.41 55.5266 33.8975C52.6913 35.5475 50.7577 38.59 50.7577 42.105C50.7577 43.37 51.01 44.5975 51.4922 45.755V47.76C51.4922 50.33 52.6463 52.615 54.4349 54.195V57.4525L45.9814 62.725C44.9496 63.3634 44.0987 64.256 43.51 65.3174C42.9214 66.3788 42.6145 67.5736 42.6189 68.7875V75C42.6189 75.3315 42.7505 75.6495 42.9848 75.8839C43.219 76.1183 43.5367 76.25 43.868 76.25C44.1992 76.25 44.5169 76.1183 44.7512 75.8839C44.9854 75.6495 45.117 75.3315 45.117 75V68.7875C45.117 67.1725 45.9339 65.7 47.3029 64.8475L52.9561 61.3225C54.9828 62.9559 57.5035 63.8523 60.1056 63.865C62.7066 63.8528 65.2265 62.9573 67.2527 61.325L72.9059 64.845C74.2748 65.7 75.0942 67.1725 75.0942 68.79V75C75.0942 75.3315 75.2258 75.6495 75.46 75.8839C75.6943 76.1183 76.012 76.25 76.3432 76.25ZM57.8173 32.9075C57.7245 32.7381 57.6747 32.5483 57.6725 32.355C57.6725 31.435 58.7866 30.655 60.1056 30.655C61.4246 30.655 62.5388 31.435 62.5388 32.355C62.5382 32.5188 62.5006 32.6803 62.4288 32.8275C62.3914 32.8175 62.3514 32.8175 62.3114 32.8075C62.189 32.78 62.0616 32.7675 61.9367 32.745C61.4517 32.6573 60.9606 32.608 60.4678 32.5975C60.4004 32.595 60.3379 32.5775 60.273 32.5775L60.198 32.585C59.4993 32.5937 58.8038 32.6809 58.1246 32.845C58.0222 32.87 57.9198 32.88 57.8173 32.9075ZM58.3195 35.39C58.5318 35.3275 58.7416 35.2525 58.9565 35.2125C59.3637 35.135 59.7833 35.09 60.213 35.085C60.3429 35.085 60.4703 35.105 60.6002 35.1125C60.905 35.1275 61.2048 35.1525 61.497 35.2025C61.6969 35.2375 61.8942 35.295 62.0916 35.3475C63.6426 35.7627 65.0042 36.698 65.9491 37.9971C66.8939 39.2962 67.3646 40.8804 67.2826 42.485C66.3874 41.6285 65.1962 41.1511 63.9577 41.1525C61.4846 41.1525 59.1214 40.385 57.1254 38.9375C56.9247 38.7908 56.6848 38.7076 56.4364 38.6986C56.1881 38.6896 55.9428 38.7552 55.732 38.887C55.5213 39.0188 55.3549 39.2107 55.2541 39.4381C55.1534 39.6654 55.123 39.9177 55.1669 40.1625C54.4653 40.5419 53.834 41.0391 53.3008 41.6325C53.3984 40.2031 53.9319 38.838 54.8294 37.7216C55.7269 36.6053 56.9451 35.7915 58.3195 35.39ZM53.9903 47.76V46.335C53.989 45.3435 54.3149 44.3792 54.9176 43.5922C55.5202 42.8051 56.3657 42.2392 57.3227 41.9825C59.3633 43.0798 61.6437 43.6544 63.9602 43.655C65.1318 43.655 66.0661 44.545 66.2184 45.675V47.7625C66.2184 51.1375 63.4755 53.88 60.1056 53.88C56.7357 53.88 53.9903 51.1325 53.9903 47.76ZM55.2243 59.9075L56.3435 59.21C56.5208 59.0963 56.6659 58.9389 56.7648 58.7528C56.8637 58.5667 56.913 58.3582 56.908 58.1475H56.9305V55.755C57.9148 56.1475 58.9815 56.3775 60.1031 56.3775C61.2223 56.3775 62.2864 56.1475 63.2682 55.7575V58.1475C63.268 58.3602 63.3221 58.5694 63.4253 58.7553C63.5284 58.9412 63.6773 59.0977 63.8577 59.21L64.9819 59.91C63.5113 60.8041 61.8235 61.2767 60.1028 61.2763C58.382 61.2758 56.6945 60.8024 55.2243 59.9075Z" fill="#EADEDA"/>
<path d="M50.5329 76.25C50.8642 76.25 51.1819 76.1183 51.4161 75.8839C51.6504 75.6495 51.782 75.3315 51.782 75V71.5675C51.782 70.0625 51.2249 68.6225 50.2132 67.515L49.2214 66.425C48.9981 66.1797 48.6866 66.0332 48.3554 66.0177C48.0242 66.0022 47.7004 66.1191 47.4553 66.3425C47.2101 66.5659 47.0637 66.8777 47.0483 67.2092C47.0328 67.5406 47.1496 67.8647 47.3728 68.11L48.3646 69.2C48.9566 69.85 49.2814 70.69 49.2814 71.5675V75C49.2839 75.69 49.8434 76.25 50.5329 76.25ZM70.9898 66.425L70.0006 67.5125C68.9876 68.6196 68.426 70.0664 68.4268 71.5675V75C68.4268 75.3315 68.5584 75.6495 68.7926 75.8839C69.0269 76.1183 69.3446 76.25 69.6758 76.25C70.0071 76.25 70.3248 76.1183 70.559 75.8839C70.7933 75.6495 70.9249 75.3315 70.9249 75V71.5675C70.9249 70.6875 71.2496 69.8475 71.8442 69.2L72.8359 68.11C73.0592 67.865 73.1761 67.5413 73.1609 67.21C73.1456 66.8788 72.9995 66.5672 72.7547 66.3438C72.5099 66.1203 72.1864 66.0033 71.8555 66.0186C71.5245 66.0338 71.2131 66.18 70.9898 66.425ZM8.41752 33.655C8.64592 33.7485 8.89673 33.7727 9.13878 33.7247C9.38083 33.6767 9.60346 33.5586 9.77898 33.385L16.906 26.25H31.3775C33.4434 26.25 35.1247 24.5675 35.1247 22.5V7.5C35.1247 5.4325 33.4434 3.75 31.3775 3.75H6.39656C4.33063 3.75 2.64941 5.4325 2.64941 7.5V22.5C2.64941 24.5675 4.33063 26.25 6.39656 26.25H7.64561V32.5C7.64565 32.7473 7.71901 32.9891 7.85642 33.1947C7.99383 33.4003 8.1891 33.5605 8.41752 33.655ZM6.39656 23.75C6.06529 23.75 5.74759 23.6183 5.51335 23.3839C5.27911 23.1495 5.14751 22.8315 5.14751 22.5V7.5C5.14751 7.16848 5.27911 6.85054 5.51335 6.61612C5.74759 6.3817 6.06529 6.25 6.39656 6.25H31.3775C31.7088 6.25 32.0265 6.3817 32.2607 6.61612C32.495 6.85054 32.6266 7.16848 32.6266 7.5V22.5C32.6266 22.8315 32.495 23.1495 32.2607 23.3839C32.0265 23.6183 31.7088 23.75 31.3775 23.75H16.3889C16.0577 23.7505 15.7399 23.8816 15.5046 24.115L10.1437 29.4825V25C10.1437 24.6685 10.0121 24.3505 9.77786 24.1161C9.54362 23.8817 9.22592 23.75 8.89465 23.75H6.39656ZM77.5923 12.5C77.5923 10.4325 75.9111 8.75 73.8451 8.75H53.8604C51.7945 8.75 50.1132 10.4325 50.1132 12.5V22.5C50.1132 24.5675 51.7945 26.25 53.8604 26.25H63.4756L70.6551 31.04C70.8428 31.1663 71.0615 31.2388 71.2875 31.2493C71.5134 31.2599 71.7379 31.2083 71.9366 31.1C72.1359 30.9938 72.3026 30.8353 72.4188 30.6415C72.535 30.4478 72.5963 30.226 72.5961 30V26.25H73.8451C75.9111 26.25 77.5923 24.5675 77.5923 22.5V12.5ZM75.0942 22.5C75.0942 22.8315 74.9626 23.1495 74.7284 23.3839C74.4941 23.6183 74.1764 23.75 73.8451 23.75H71.3471C71.0158 23.75 70.6981 23.8817 70.4638 24.1161C70.2296 24.3505 70.098 24.6685 70.098 25V27.6625L64.5447 23.96C64.3401 23.8227 64.0992 23.7496 63.8528 23.75H53.8604C53.5291 23.75 53.2114 23.6183 52.9772 23.3839C52.7429 23.1495 52.6113 22.8315 52.6113 22.5V12.5C52.6113 12.1685 52.7429 11.8505 52.9772 11.6161C53.2114 11.3817 53.5291 11.25 53.8604 11.25H73.8451C74.1764 11.25 74.4941 11.3817 74.7284 11.6161C74.9626 11.8505 75.0942 12.1685 75.0942 12.5V22.5Z" fill="#EADEDA"/>
</svg>
