<svg width="81" height="80" viewBox="0 0 81 80" fill="none" xmlns="http://www.w3.org/2000/svg">
<g clip-path="url(#clip0_166_299)">
<path d="M74.8141 72.4H73.6949C72.9755 72.4 72.4159 72.96 72.4159 73.68C72.4159 74.4 72.9755 74.96 73.6949 74.96H74.8141C75.5335 74.96 76.0931 74.4 76.0931 73.68C76.0931 72.96 75.5335 72.4 74.8141 72.4ZM70.0977 72.4H68.8187V38.4C68.8187 37.68 68.2591 37.12 67.5396 37.12C66.8202 37.12 66.2606 37.68 66.2606 38.4V72.4H58.6664V21.2H66.2606V30.08C66.2606 30.8 66.8202 31.36 67.5396 31.36C68.2591 31.36 68.8187 30.8 68.8187 30.08V19.92C68.8187 19.2 68.2591 18.64 67.5396 18.64H57.3874C56.6679 18.64 56.1083 19.2 56.1083 19.92V72.4H53.95V31.44C53.95 30.72 53.3904 30.16 52.671 30.16H42.4388C41.7193 30.16 41.1597 30.72 41.1597 31.44V72.4H39.0014V43.04C39.0014 42.32 38.4418 41.76 37.7224 41.76H27.5701C26.8506 41.76 26.2911 42.32 26.2911 43.04V72.4H24.1327V53.36C24.1327 52.64 23.5731 52.08 22.8537 52.08H12.7014C11.982 52.08 11.4224 52.64 11.4224 53.36V72.4H5.42697C4.70752 72.4 4.14795 72.96 4.14795 73.68C4.14795 74.4 4.70752 74.96 5.42697 74.96H70.0977C70.8171 74.96 71.3767 74.4 71.3767 73.68C71.3767 72.96 70.8171 72.4 70.0977 72.4ZM43.7178 32.72H51.312V72.4H43.7178V32.72ZM28.8491 44.32H36.4433V72.4H28.8491V44.32ZM13.9805 54.64H21.5747V72.4H13.9805V54.64Z" fill="#EADEDA"/>
<path d="M67.5397 32.56C66.8203 32.56 66.2607 33.12 66.2607 33.84V35.04C66.2607 35.76 66.8203 36.32 67.5397 36.32C68.2592 36.32 68.8188 35.76 68.8188 35.04V33.84C68.8188 33.12 68.2592 32.56 67.5397 32.56ZM16.059 42.56C16.2988 42.56 16.5386 42.48 16.6985 42.4C27.0906 36.24 41.0799 26.4 50.8325 13.68L52.9109 15.12C53.7103 15.68 54.7495 15.12 54.8294 14.24L55.4689 6.40002C55.5489 5.44002 54.5896 4.80002 53.7103 5.20002L46.5957 8.56002C45.7164 8.96002 45.6364 10.16 46.4358 10.64L48.6741 12.24C39.0814 24.64 25.4918 34.16 15.3395 40.24C14.7 40.64 14.5401 41.36 14.8599 42C15.1796 42.32 15.6593 42.56 16.059 42.56ZM9.82372 46.08C10.0635 46.08 10.2234 46 10.4632 45.92C11.4225 45.44 12.5416 44.8 13.6608 44.16C14.3003 43.84 14.4602 43.04 14.1404 42.4C13.8207 41.76 13.0213 41.6 12.3818 41.92C11.1827 42.56 10.1435 43.2 9.1842 43.68C8.54469 44 8.30487 44.8 8.62463 45.44C8.94439 45.84 9.34408 46.08 9.82372 46.08ZM5.42707 48.32C5.58695 48.32 5.82676 48.32 5.98664 48.24C5.98664 48.24 6.3064 48.08 6.94591 47.76C7.58542 47.44 7.82524 46.64 7.50548 46C7.18573 45.36 6.38634 45.12 5.74682 45.44C5.18725 45.76 4.86749 45.84 4.86749 45.84C4.22798 46.16 3.90822 46.88 4.22798 47.52C4.4678 48 4.94743 48.32 5.42707 48.32Z" fill="#EADEDA"/>
</g>
<defs>
<clipPath id="clip0_166_299">
<rect width="79.9391" height="80" fill="white" transform="translate(0.150879)"/>
</clipPath>
</defs>
</svg>
