<svg width="81" height="80" viewBox="0 0 81 80" fill="none" xmlns="http://www.w3.org/2000/svg">
<path d="M37.1175 2.495C36.8683 2.49449 36.6246 2.5686 36.4178 2.7078C36.2111 2.847 36.0506 3.04492 35.9571 3.27611C35.8636 3.50731 35.8414 3.7612 35.8933 4.00514C35.9451 4.24908 36.0687 4.47192 36.2482 4.645L39.2559 7.65C22.094 8.505 8.40439 22.6825 8.40439 40.0675C8.3891 46.5454 10.3214 52.8782 13.9502 58.2425C16.285 61.702 19.2616 64.6809 22.7185 67.0175C24.4472 68.185 26.2957 69.1925 28.2393 70.015C28.3914 70.0866 28.5564 70.1267 28.7244 70.133C28.8923 70.1393 29.0599 70.1116 29.2169 70.0515C29.3739 69.9914 29.5172 69.9003 29.6382 69.7835C29.7591 69.6667 29.8553 69.5266 29.9209 69.3718C29.9865 69.2169 30.0202 69.0503 30.02 68.8821C30.0197 68.7139 29.9856 68.5474 29.9195 68.3927C29.8535 68.238 29.7569 68.0983 29.6356 67.9818C29.5143 67.8654 29.3707 67.7746 29.2135 67.715C25.6525 66.2076 22.4169 64.024 19.6858 61.285C16.8967 58.5027 14.6849 55.1961 13.1775 51.5552C11.6701 47.9143 10.8969 44.011 10.9025 40.07C10.9025 24.13 23.293 11.15 38.9611 10.1575L36.2482 12.875C36.1322 12.9912 36.0402 13.1292 35.9775 13.2809C35.9148 13.4327 35.8826 13.5954 35.8827 13.7596C35.8829 13.9239 35.9153 14.0865 35.9782 14.2382C36.0411 14.3899 36.1333 14.5277 36.2494 14.6437C36.3655 14.7598 36.5034 14.8518 36.6551 14.9146C36.8067 14.9773 36.9693 15.0096 37.1334 15.0094C37.2975 15.0093 37.46 14.9769 37.6116 14.9139C37.7631 14.8509 37.9009 14.7587 38.0168 14.6425L43.013 9.6425C43.1297 9.52634 43.2223 9.38824 43.2855 9.23615C43.3487 9.08406 43.3812 8.92096 43.3812 8.75625C43.3812 8.59153 43.3487 8.42844 43.2855 8.27635C43.2223 8.12425 43.1297 7.98616 43.013 7.87L38.0168 2.875C37.9001 2.75448 37.7603 2.65872 37.6058 2.59343C37.4513 2.52815 37.2852 2.49467 37.1175 2.495ZM52.9105 10.02C52.6292 10.042 52.3637 10.1586 52.1572 10.3509C51.9506 10.5431 51.8152 10.7997 51.7729 11.0788C51.7306 11.3579 51.784 11.6431 51.9243 11.888C52.0647 12.1329 52.2837 12.3231 52.5457 12.4275C56.1069 13.9348 59.3424 16.1183 62.0735 18.8575C64.8603 21.6404 67.0707 24.9465 68.578 28.5862C70.0852 32.2259 70.8596 36.1276 70.8568 40.0675C70.8568 56.0475 58.3988 69.0475 42.6658 69.975L45.5111 67.13C45.6914 66.9543 45.8145 66.7281 45.8642 66.4812C45.9139 66.2343 45.8879 65.9781 45.7896 65.7462C45.6913 65.5144 45.5253 65.3176 45.3133 65.1818C45.1014 65.0459 44.8534 64.9773 44.6018 64.985C44.2776 64.9936 43.9694 65.1281 43.7425 65.36L38.7463 70.36C38.6299 70.4761 38.5377 70.6141 38.4747 70.7659C38.4117 70.9178 38.3793 71.0806 38.3793 71.245C38.3793 71.4094 38.4117 71.5722 38.4747 71.7241C38.5377 71.8759 38.6299 72.0139 38.7463 72.13L43.7425 77.13C43.8584 77.2462 43.9961 77.3384 44.1477 77.4014C44.2993 77.4644 44.4618 77.4968 44.6259 77.4969C44.79 77.4971 44.9525 77.4648 45.1042 77.4021C45.2559 77.3393 45.3937 77.2473 45.5099 77.1312C45.626 77.0152 45.7181 76.8774 45.7811 76.7257C45.844 76.574 45.8764 76.4114 45.8765 76.2471C45.8766 76.0829 45.8444 75.9202 45.7817 75.7684C45.719 75.6167 45.6271 75.4787 45.5111 75.3625L42.6283 72.48C59.7353 71.5625 73.3549 57.41 73.3549 40.0675C73.3692 33.5913 71.4369 27.2604 67.8091 21.8975C64.2829 16.6733 59.3198 12.5834 53.52 10.1225C53.3677 10.0566 53.2038 10.0218 53.0379 10.02C52.9963 10.0179 52.9521 10.0179 52.9105 10.02ZM40.8796 20.07C29.858 20.07 20.8949 29.0375 20.8949 40.07C20.8949 51.1 29.858 60.07 40.8796 60.07C51.9012 60.07 60.8644 51.1 60.8644 40.07C60.8644 29.0375 51.9012 20.07 40.8796 20.07ZM40.8796 22.57C50.5523 22.57 58.3663 30.3875 58.3663 40.07C58.3663 49.7475 50.5523 57.57 40.8796 57.57C31.207 57.57 23.393 49.7475 23.393 40.07C23.393 30.3875 31.207 22.57 40.8796 22.57ZM39.9953 27.5V30.395C39.2109 30.4925 38.499 30.68 37.8644 30.9625C37.2299 31.2425 36.6903 31.6025 36.2407 32.04C35.7981 32.4831 35.4498 33.0112 35.2165 33.5925C34.978 34.2233 34.8594 34.8931 34.8667 35.5675C34.8667 36.3475 35.0041 37.035 35.2664 37.6325C35.5462 38.2275 35.9359 38.7525 36.4455 39.2075C36.9651 39.665 37.5896 40.0625 38.3191 40.4075C39.056 40.7375 39.8879 41.0325 40.8122 41.29C41.5042 41.515 42.0937 41.7575 42.5783 42.0025C43.073 42.2475 43.4727 42.5125 43.7724 42.8025C44.0847 43.0925 44.307 43.4025 44.4469 43.735C44.5843 44.0675 44.6568 44.435 44.6568 44.83C44.6568 45.305 44.5718 45.73 44.397 46.1175C44.2221 46.495 43.9673 46.8175 43.6325 47.09C43.3078 47.3525 42.9081 47.56 42.421 47.71C41.4587 47.9802 40.4425 47.994 39.4732 47.75C39.0361 47.636 38.6288 47.4287 38.2791 47.1425C37.9021 46.8268 37.6058 46.4257 37.4148 45.9725C37.1949 45.48 37.09 44.8625 37.09 44.115H34.0398C34.0398 45.1075 34.1947 45.96 34.507 46.67C34.8193 47.37 35.2314 47.9575 35.751 48.4225C36.2831 48.8875 36.8902 49.2425 37.5722 49.4875C38.2541 49.7325 38.9561 49.8975 39.683 49.975V52.5H42.0937V49.975C42.9605 49.8875 43.74 49.7125 44.4319 49.45C45.1239 49.185 45.7135 48.8325 46.1981 48.3925C46.6827 47.955 47.0599 47.4375 47.3247 46.8425C47.5895 46.235 47.7194 45.56 47.7194 44.805C47.7194 44.0325 47.5945 43.3525 47.3397 42.7625C47.081 42.1701 46.6965 41.6412 46.2131 41.2125C45.6643 40.7297 45.0451 40.3335 44.377 40.0375C43.5658 39.664 42.7263 39.3555 41.8664 39.115C41.2268 38.9175 40.6017 38.6761 39.9953 38.3925C39.5582 38.1787 39.1502 37.9099 38.7812 37.5925C38.4902 37.3395 38.2597 37.0242 38.1068 36.67C37.8559 35.8922 37.8559 35.0552 38.1068 34.2775C38.2466 33.9025 38.4465 33.5775 38.7138 33.315C39.0065 33.0345 39.3557 32.8197 39.738 32.685C40.1427 32.535 40.6173 32.46 41.1719 32.46C41.704 32.46 42.1761 32.56 42.5933 32.7625C43.008 32.965 43.3552 33.245 43.6325 33.6025C43.9073 33.9625 44.1172 34.3925 44.2571 34.8825C44.4069 35.375 44.4819 35.91 44.4819 36.5H47.5146C47.5146 34.7175 47.0674 33.3175 46.1781 32.29C45.3013 31.255 44.0572 30.63 42.4409 30.41V27.5H39.9953Z" fill="#EADEDA"/>
</svg>
