<svg width="201" height="32" viewBox="0 0 201 32" fill="none" xmlns="http://www.w3.org/2000/svg">
<path d="M20.216 15.784C20.152 16.04 20.088 16.392 20.024 16.84L1.16 14.824H20.36L20.216 15.784ZM19.688 19.432C19.592 20.168 19.544 20.84 19.544 21.448L0.632 19.432H19.688ZM21.512 10.216L20.936 12.184L2.312 10.216H21.512ZM19.592 24.04C19.72 24.936 19.832 25.608 19.928 26.056L1.256 24.04H19.592ZM23.48 5.608C23.032 6.44 22.712 7.08 22.52 7.528L4.568 5.608H23.48ZM21.032 28.696C21.448 29.432 21.928 30.024 22.472 30.472L5.864 28.696H21.032ZM28.04 1C27.112 1.576 26.392 2.104 25.88 2.584L11.192 1H28.04ZM32.264 31.72C28.232 31.72 25.336 30.936 23.576 29.368C21.848 27.8 20.984 25.384 20.984 22.12C20.984 20.744 21.208 18.712 21.656 16.024C22.616 10.52 24.264 6.52 26.6 4.024C28.968 1.528 32.696 0.279998 37.784 0.279998C38.968 0.279998 40.312 0.407998 41.816 0.663999C43.352 0.888 44.472 1.176 45.176 1.528L42.488 8.872C40.6 8.424 38.824 8.2 37.16 8.2C35.528 8.2 34.36 8.36 33.656 8.68C32.952 9 32.52 9.64 32.36 10.6L30.152 23.176C31.304 23.432 32.488 23.56 33.704 23.56C36.296 23.56 38.664 23.176 40.808 22.408L40.04 30.472C37.992 31.304 35.4 31.72 32.264 31.72ZM58.3576 31L63.6376 1H72.7576L67.4776 31H58.3576ZM56.9176 30.856L36.5656 28.696H57.3016L56.9176 30.856ZM58.5496 21.592L38.1976 19.432H58.9336L58.5496 21.592ZM59.3656 16.984L39.0136 14.824H59.7496L59.3656 16.984ZM60.1816 12.376L39.8296 10.216H60.5656L60.1816 12.376ZM60.9976 7.768L40.6456 5.608H61.3336L60.9976 7.768ZM57.7336 26.2L37.3816 24.04H58.1176L57.7336 26.2ZM61.7656 3.16L41.4616 1H62.1496L61.7656 3.16ZM103.665 23.752H97.7131L96.4651 31H87.3451L92.6251 1H107.025C112.465 1 115.185 3.528 115.185 8.584C115.185 10.984 114.849 13.16 114.177 15.112C113.505 17.032 112.753 18.568 111.921 19.72C111.121 20.84 110.001 21.8 108.561 22.6C107.153 23.368 105.521 23.752 103.665 23.752ZM101.169 16.072C102.257 16.072 103.073 15.96 103.617 15.736C104.193 15.48 104.561 14.92 104.721 14.056C105.137 11.688 105.345 10.392 105.345 10.168C105.345 9.56 105.105 9.16 104.625 8.968C104.145 8.776 103.425 8.68 102.465 8.68H100.353L99.0571 16.072H101.169ZM85.9051 30.856L65.5531 28.696H86.2891L85.9051 30.856ZM87.5371 21.592L67.1851 19.432H87.9211L87.5371 21.592ZM89.1211 12.376L68.8171 10.216H89.5051L89.1211 12.376ZM89.9371 7.768L69.6331 5.608H90.3211L89.9371 7.768ZM86.7211 26.2L66.3691 24.04H87.1051L86.7211 26.2ZM90.7531 3.16L70.4491 1H91.1371L90.7531 3.16ZM88.3051 16.984L68.0011 14.824H88.6891L88.3051 16.984ZM142.044 23.512C143.292 23.512 144.22 23.368 144.828 23.08C145.436 22.76 145.836 22.056 146.028 20.968L148.236 8.488H144.396C143.18 8.488 142.268 8.648 141.66 8.968C141.052 9.256 140.652 9.944 140.46 11.032L138.252 23.512H142.044ZM145.98 0.279998C150.044 0.279998 152.94 1.08 154.668 2.68C156.396 4.248 157.26 6.68 157.26 9.976C157.26 13.272 156.732 16.728 155.676 20.344C154.652 23.928 153.004 26.728 150.732 28.744C148.492 30.728 145.196 31.72 140.844 31.72C136.524 31.72 133.5 30.936 131.772 29.368C130.044 27.768 129.18 25.32 129.18 22.024C129.18 20.456 129.404 18.392 129.852 15.832C130.3 13.24 130.892 11.016 131.628 9.16C132.364 7.272 133.356 5.64 134.604 4.264C137.004 1.608 140.796 0.279998 145.98 0.279998ZM128.46 15.784C128.396 16.04 128.332 16.392 128.268 16.84L109.404 14.824H128.604L128.46 15.784ZM127.932 19.432C127.836 20.168 127.788 20.84 127.788 21.448L108.876 19.432H127.932ZM129.756 10.216L129.18 12.184L110.556 10.216H129.756ZM127.836 24.04C127.964 24.936 128.076 25.608 128.172 26.056L109.5 24.04H127.836ZM131.724 5.608C131.276 6.44 130.956 7.08 130.764 7.528L112.812 5.608H131.724ZM129.276 28.696C129.692 29.432 130.172 30.024 130.716 30.472L114.108 28.696H129.276ZM136.284 1C135.356 1.576 134.636 2.104 134.124 2.584L119.436 1H136.284ZM189.296 23.752H183.344L182.096 31H172.976L178.256 1H192.656C198.096 1 200.816 3.528 200.816 8.584C200.816 10.984 200.48 13.16 199.808 15.112C199.136 17.032 198.384 18.568 197.552 19.72C196.752 20.84 195.632 21.8 194.192 22.6C192.784 23.368 191.152 23.752 189.296 23.752ZM186.8 16.072C187.888 16.072 188.704 15.96 189.248 15.736C189.824 15.48 190.192 14.92 190.352 14.056C190.768 11.688 190.976 10.392 190.976 10.168C190.976 9.56 190.736 9.16 190.256 8.968C189.776 8.776 189.056 8.68 188.096 8.68H185.984L184.688 16.072H186.8ZM171.536 30.856L151.184 28.696H171.92L171.536 30.856ZM173.168 21.592L152.816 19.432H173.552L173.168 21.592ZM174.752 12.376L154.448 10.216H175.136L174.752 12.376ZM175.568 7.768L155.264 5.608H175.952L175.568 7.768ZM172.352 26.2L152 24.04H172.736L172.352 26.2ZM176.384 3.16L156.08 1H176.768L176.384 3.16ZM173.936 16.984L153.632 14.824H174.32L173.936 16.984Z" fill="#EADEDA"/>
</svg>
