<svg width="81" height="80" viewBox="0 0 81 80" fill="none" xmlns="http://www.w3.org/2000/svg">
<path d="M51.8402 28.4531C51.8402 22.4062 46.9377 17.4844 40.8798 17.5C34.8376 17.5 29.9194 22.4062 29.9194 28.4687C29.9194 34.5312 34.8219 39.4219 40.8798 39.4219C46.9221 39.4062 51.8246 34.5 51.8402 28.4531ZM33.0421 28.4531C33.0421 24.125 36.555 20.625 40.8798 20.625C45.2047 20.625 48.7176 24.1406 48.7176 28.4687C48.7176 32.7969 45.2047 36.2812 40.8798 36.2812C36.555 36.2812 33.0577 32.7812 33.0421 28.4531Z" fill="#EADEDA"/>
<path d="M57.5232 40.9844C57.7574 40.7188 57.9604 40.4219 58.1009 40.0938C58.4912 39.25 58.5068 38.2657 58.1477 37.4063L56.5864 33.5469L60.115 31.3438C61.7231 30.3438 62.1915 28.2188 61.1923 26.6094C60.9112 26.1719 60.5522 25.7969 60.115 25.5313L56.5864 23.3281L58.1477 19.4688C58.8503 17.7188 58.0072 15.7188 56.2429 15.0157C55.7589 14.8282 55.2437 14.7344 54.7285 14.7813L50.5754 15.0782L49.5761 11.0469C49.1234 9.21878 47.2654 8.09377 45.4387 8.5469C44.9234 8.6719 44.455 8.90627 44.0491 9.25002L40.8796 11.9219L37.6946 9.25002C36.2582 8.03127 34.0879 8.21878 32.8701 9.65628C32.5266 10.0625 32.2924 10.5313 32.1675 11.0469L31.1683 15.0782L27.0152 14.7813C25.126 14.6563 23.5023 16.0625 23.3617 17.9532C23.3305 18.4688 23.4086 18.9844 23.5959 19.4688L25.1572 23.3281L21.6287 25.5313C20.0205 26.5313 19.5365 28.6563 20.5358 30.25C20.8168 30.6875 21.1759 31.0625 21.6287 31.3438L25.1572 33.5469L23.5959 37.4063C23.2368 38.2657 23.2524 39.2344 23.6428 40.0938C23.7833 40.4219 23.9863 40.7188 24.2205 40.9844L15.0556 62.7188C14.7277 63.5157 15.0868 64.4375 15.8831 64.7657C16.2734 64.9375 16.7262 64.9219 17.1165 64.7657L27.0152 60.4375L30.8248 70.5469C31.0434 71.1407 31.6211 71.5469 32.2612 71.5625H32.2924C32.917 71.5625 33.479 71.1875 33.7288 70.6094L40.8796 53.6875L48.0148 70.6094C48.2646 71.1875 48.8267 71.5625 49.4512 71.5625H49.4825C50.1226 71.5469 50.6847 71.1563 50.9189 70.5469L54.7285 60.4375L64.6272 64.7657C65.4234 65.1094 66.3446 64.75 66.6881 63.9531C66.8598 63.5625 66.8598 63.1094 66.6881 62.7188L57.5232 40.9844ZM32.3861 65.7969L29.3728 57.7969C29.0605 56.9844 28.1706 56.5782 27.3587 56.8907C27.3275 56.9063 27.3119 56.9063 27.2806 56.9219L19.4585 60.3438L27.1401 42.1094L31.1683 41.8282L32.1675 45.875C32.4486 47.0313 33.3073 47.9531 34.447 48.3125C34.7905 48.4219 35.1496 48.4844 35.5087 48.4844C36.305 48.4844 37.0857 48.2032 37.6946 47.6719L38.163 47.2813L39.1778 49.6875L32.3861 65.7969ZM35.6805 45.2656C35.6024 45.3281 35.4931 45.3594 35.3994 45.3125C35.3058 45.2813 35.2277 45.2032 35.1965 45.0938L33.885 39.7813C33.7132 39.0781 33.0887 38.5938 32.3705 38.5938C32.3393 38.5938 32.2924 38.5938 32.2612 38.5938L26.8122 38.9844C26.781 38.9844 26.7498 38.9844 26.7029 38.9844L26.6717 38.9688C26.5937 38.9375 26.5312 38.875 26.5 38.8125C26.4687 38.7344 26.4687 38.6563 26.5 38.5782L28.5453 33.5156C28.8263 32.8125 28.5609 32 27.9208 31.6094L23.2837 28.7188C23.19 28.6563 23.1432 28.5625 23.1432 28.4531C23.1432 28.3438 23.19 28.25 23.2837 28.2031L27.9208 25.2969C28.5609 24.8907 28.8263 24.0938 28.5453 23.3906L26.5 18.3125C26.4375 18.1563 26.5156 17.9844 26.6717 17.9219C26.7186 17.9063 26.7498 17.9063 26.7966 17.9063L32.2612 18.2813C33.0106 18.3282 33.6976 17.8282 33.885 17.0938L35.1965 11.7813C35.2121 11.6719 35.2902 11.5938 35.3994 11.5625C35.4931 11.5313 35.6024 11.5469 35.6805 11.625L39.8648 15.1563C40.4425 15.6407 41.3012 15.6407 41.8789 15.1563L46.0788 11.625C46.1569 11.5625 46.2662 11.5313 46.3598 11.5625C46.4535 11.5938 46.5316 11.6719 46.5628 11.7813L47.8743 17.0938C48.0617 17.8282 48.7486 18.3282 49.4981 18.2813L54.9627 17.9063C55.1344 17.8906 55.2749 18.0157 55.2749 18.1875C55.2749 18.2344 55.2749 18.2656 55.2593 18.3125L53.214 23.3906C52.933 24.0938 53.1984 24.9063 53.8385 25.2969L58.4756 28.2031C58.5693 28.25 58.6161 28.3438 58.6161 28.4531C58.6161 28.5625 58.5693 28.6563 58.4756 28.7188L53.8229 31.6094C53.1828 32.0156 52.9173 32.8125 53.1984 33.5156L55.2593 38.5938C55.2905 38.6719 55.2905 38.75 55.2593 38.8281C55.2281 38.9063 55.1656 38.9688 55.0876 38.9844L55.0563 39C55.0251 39.0156 54.9939 39.0156 54.947 39L49.4981 38.6094C48.733 38.5625 48.0617 39.0469 47.8743 39.7969L46.5628 45.1094C46.5316 45.2188 46.4691 45.2969 46.3598 45.3282C46.2662 45.3594 46.1569 45.3438 46.0788 45.2656L41.8945 41.7344C41.3168 41.25 40.4581 41.25 39.8804 41.7344L35.6805 45.2656ZM54.463 56.9219C53.6668 56.5781 52.7456 56.9375 52.4021 57.7344C52.3865 57.7657 52.3865 57.7813 52.3709 57.8125L49.3576 65.8125L42.3785 49.2656L40.6611 45.1875L40.8796 45.0157L44.0647 47.6563C45.5167 48.875 47.6713 48.6875 48.8892 47.2344C49.2327 46.8282 49.4668 46.3594 49.5918 45.8594L50.591 41.8125L54.6192 42.0938L62.3008 60.3125L54.463 56.9219Z" fill="#EADEDA"/>
</svg>
