<svg width="65" height="64" viewBox="0 0 65 64" fill="none" xmlns="http://www.w3.org/2000/svg">
<g clip-path="url(#clip0_166_229)">
<path d="M35.3876 47.0582H30.3708C30.0387 47.0582 29.7201 46.9261 29.4853 46.6911C29.2504 46.456 29.1185 46.1373 29.1185 45.8049V43.9738C28.4143 43.7526 27.7312 43.469 27.0772 43.1266L25.7835 44.4225C25.6672 44.539 25.5291 44.6315 25.3771 44.6945C25.2251 44.7576 25.0621 44.7901 24.8975 44.7901C24.7329 44.7901 24.57 44.7576 24.4179 44.6945C24.2659 44.6315 24.1278 44.539 24.0115 44.4225L20.4649 40.8732C20.3485 40.7568 20.2561 40.6186 20.1931 40.4665C20.1301 40.3143 20.0976 40.1512 20.0976 39.9865C20.0976 39.8218 20.1301 39.6587 20.1931 39.5066C20.2561 39.3544 20.3485 39.2162 20.4649 39.0998L21.7598 37.8052C21.4182 37.1509 21.135 36.4677 20.9132 35.7636H19.0848C18.7527 35.7636 18.4342 35.6316 18.1993 35.3965C17.9645 35.1615 17.8325 34.8427 17.8325 34.5103V29.4897C17.8325 29.1573 17.9645 28.8385 18.1993 28.6035C18.4342 28.3684 18.7527 28.2364 19.0848 28.2364H20.9145C21.1364 27.532 21.4196 26.8484 21.7611 26.1935L20.4662 24.8989C20.3497 24.7825 20.2574 24.6443 20.1943 24.4921C20.1313 24.34 20.0989 24.1769 20.0989 24.0122C20.0989 23.8475 20.1313 23.6844 20.1943 23.5323C20.2574 23.3801 20.3497 23.2419 20.4662 23.1255L24.0127 19.5762C24.2475 19.3412 24.566 19.2091 24.8981 19.209C25.0628 19.2089 25.2259 19.2413 25.378 19.3043C25.5301 19.3673 25.6684 19.4597 25.7848 19.5762L27.0772 20.8734C27.7311 20.5318 28.4137 20.2483 29.1172 20.0262V18.1951C29.1172 17.8627 29.2492 17.5439 29.484 17.3089C29.7189 17.0739 30.0374 16.9418 30.3695 16.9418H35.3864C35.7185 16.9418 36.037 17.0739 36.2719 17.3089C36.5068 17.5439 36.6387 17.8627 36.6387 18.1951V20.0262C37.3423 20.248 38.0249 20.5315 38.6787 20.8734L39.9761 19.5775C40.0924 19.461 40.2306 19.3685 40.3826 19.3054C40.5346 19.2424 40.6976 19.2099 40.8622 19.2099C41.0267 19.2099 41.1897 19.2424 41.3417 19.3054C41.4938 19.3685 41.6319 19.461 41.7482 19.5775L45.2948 23.1268C45.4112 23.2432 45.5036 23.3814 45.5666 23.5335C45.6296 23.6857 45.6621 23.8488 45.6621 24.0135C45.6621 24.1782 45.6296 24.3413 45.5666 24.4934C45.5036 24.6455 45.4112 24.7838 45.2948 24.9002L43.9974 26.1935C44.3394 26.8476 44.6228 27.5308 44.8439 28.2351H46.6736C47.0057 28.2351 47.3242 28.3672 47.5591 28.6022C47.794 28.8373 47.9259 29.156 47.9259 29.4884V34.5091C47.9259 34.8415 47.794 35.1602 47.5591 35.3953C47.3242 35.6303 47.0057 35.7623 46.6736 35.7623H44.8439C44.6228 36.4666 44.3394 37.1499 43.9974 37.8039L45.2923 39.1023C45.4087 39.2187 45.5011 39.357 45.5641 39.5091C45.6271 39.6612 45.6596 39.8243 45.6596 39.989C45.6596 40.1537 45.6271 40.3168 45.5641 40.469C45.5011 40.6211 45.4087 40.7593 45.2923 40.8757L41.7457 44.425C41.6294 44.5415 41.4913 44.634 41.3392 44.697C41.1872 44.7601 41.0242 44.7926 40.8597 44.7926C40.6951 44.7926 40.5321 44.7601 40.3801 44.697C40.2281 44.634 40.0899 44.5415 39.9736 44.425L38.68 43.1291C38.0264 43.4715 37.3437 43.755 36.6399 43.9763V45.8074C36.6393 46.1393 36.507 46.4575 36.2723 46.692C36.0375 46.9265 35.7193 47.0582 35.3876 47.0582ZM31.6231 44.5516H34.1353V43.0138C34.1353 42.7298 34.2317 42.4542 34.4087 42.2322C34.5858 42.0102 34.8329 41.8549 35.1096 41.7919C36.213 41.5421 37.2659 41.106 38.2229 40.5022C38.4632 40.3505 38.748 40.2851 39.0305 40.3167C39.3129 40.3484 39.5762 40.4752 39.777 40.6765L40.864 41.763L42.6386 39.9871L41.5528 38.8993C41.3521 38.699 41.2252 38.4365 41.1929 38.1546C41.1606 37.8728 41.2248 37.5883 41.375 37.3477C41.9779 36.3912 42.4137 35.3388 42.6636 34.2358C42.7266 33.9589 42.8818 33.7116 43.1036 33.5344C43.3254 33.3573 43.6008 33.2608 43.8846 33.2608H45.4213V30.743H43.8846C43.6008 30.7429 43.3254 30.6465 43.1036 30.4693C42.8818 30.2921 42.7266 30.0448 42.6636 29.7679C42.4142 28.6648 41.9784 27.6123 41.375 26.656C41.2234 26.4155 41.158 26.1305 41.1896 25.8478C41.2213 25.5652 41.348 25.3017 41.5491 25.1007L42.6361 24.0128L40.8603 22.2357L39.7733 23.3235C39.5727 23.5238 39.3101 23.6501 39.0285 23.6818C38.7469 23.7134 38.4629 23.6485 38.2229 23.4977C37.267 22.8944 36.2155 22.4583 35.1134 22.2081C34.8366 22.1451 34.5895 21.9898 34.4125 21.7678C34.2355 21.5458 34.1391 21.2702 34.1391 20.9862V19.4484H31.6231V20.9862C31.6231 21.2702 31.5267 21.5458 31.3497 21.7678C31.1727 21.9898 30.9255 22.1451 30.6488 22.2081C29.5467 22.4583 28.4952 22.8944 27.5393 23.4977C27.2989 23.6495 27.0141 23.7149 26.7317 23.6833C26.4493 23.6516 26.186 23.5247 25.9852 23.3235L24.8981 22.2357L23.1223 24.0128L24.2094 25.1007C24.4104 25.3017 24.5372 25.5652 24.5688 25.8478C24.6004 26.1305 24.5351 26.4155 24.3834 26.656C23.7805 27.6126 23.3447 28.6649 23.0948 29.7679C23.0318 30.0448 22.8767 30.2921 22.6548 30.4693C22.433 30.6465 22.1576 30.7429 21.8738 30.743H20.3372V33.257H21.8738C22.1576 33.257 22.433 33.3535 22.6548 33.5307C22.8767 33.7078 23.0318 33.9551 23.0948 34.2321C23.3443 35.3364 23.7801 36.39 24.3834 37.3477C24.5351 37.5883 24.6004 37.8733 24.5688 38.1559C24.5372 38.4386 24.4104 38.702 24.2094 38.9031L23.1223 39.9909L24.8981 41.7681L25.9852 40.6802C26.186 40.479 26.4493 40.3522 26.7317 40.3205C27.0141 40.2888 27.2989 40.3543 27.5393 40.506C28.4949 41.1099 29.5465 41.546 30.6488 41.7956C30.9255 41.8587 31.1727 42.0139 31.3497 42.2359C31.5267 42.458 31.6231 42.7336 31.6231 43.0176V44.5516Z" fill="#EADEDA"/>
<path d="M32.8794 39.5285C31.3916 39.5285 29.9371 39.0869 28.7 38.2597C27.4629 37.4324 26.4987 36.2567 25.9294 34.881C25.36 33.5054 25.211 31.9917 25.5013 30.5313C25.7915 29.0709 26.508 27.7295 27.5601 26.6766C28.6121 25.6237 29.9526 24.9067 31.4118 24.6162C32.8711 24.3257 34.3837 24.4748 35.7583 25.0446C37.1329 25.6144 38.3077 26.5794 39.1344 27.8174C39.961 29.0555 40.4022 30.511 40.4022 32C40.3998 33.996 39.6065 35.9095 38.1962 37.3209C36.786 38.7322 34.8739 39.5261 32.8794 39.5285ZM32.8794 26.9781C31.887 26.9781 30.9168 27.2726 30.0916 27.8245C29.2663 28.3763 28.6232 29.1606 28.2434 30.0782C27.8635 30.9958 27.7642 32.0056 27.9578 32.9797C28.1514 33.9539 28.6293 34.8487 29.3311 35.551C30.0329 36.2533 30.9271 36.7316 31.9005 36.9254C32.8739 37.1192 33.8828 37.0197 34.7998 36.6396C35.7167 36.2595 36.5004 35.6159 37.0518 34.79C37.6032 33.9642 37.8975 32.9932 37.8975 32C37.8959 30.6686 37.3666 29.3923 36.4259 28.4508C35.4852 27.5094 34.2098 26.9798 32.8794 26.9781ZM9.68011 17.566C7.94432 17.566 6.24752 17.0509 4.80426 16.0858C3.36101 15.1207 2.23613 13.749 1.57187 12.1441C0.907611 10.5392 0.733811 8.77325 1.07245 7.06952C1.41108 5.36578 2.24694 3.8008 3.47433 2.57248C4.70172 1.34416 6.2655 0.50766 7.96794 0.168767C9.67037 -0.170127 11.435 0.00380552 13.0387 0.668569C14.6423 1.33333 16.013 2.45907 16.9773 3.90343C17.9417 5.34778 18.4564 7.04588 18.4564 8.78299C18.4538 11.1116 17.5283 13.344 15.883 14.9906C14.2377 16.6371 12.0069 17.5633 9.68011 17.566ZM9.68011 2.50656C8.4397 2.50656 7.22714 2.87467 6.19577 3.56433C5.1644 4.254 4.36055 5.23424 3.88586 6.38111C3.41118 7.52797 3.28698 8.78995 3.52897 10.0075C3.77096 11.225 4.36828 12.3433 5.24539 13.2211C6.12249 14.0989 7.23999 14.6966 8.45657 14.9388C9.67315 15.181 10.9342 15.0567 12.0802 14.5817C13.2262 14.1066 14.2057 13.3021 14.8948 12.27C15.5839 11.2378 15.9518 10.0244 15.9518 8.78299C15.9498 7.11899 15.2884 5.52371 14.1126 4.34708C12.9369 3.17046 11.3428 2.50855 9.68011 2.50656ZM56.0788 17.566C54.343 17.566 52.6462 17.0509 51.2029 16.0858C49.7597 15.1207 48.6348 13.749 47.9705 12.1441C47.3063 10.5392 47.1325 8.77325 47.4711 7.06952C47.8097 5.36578 48.6456 3.8008 49.873 2.57248C51.1004 1.34416 52.6642 0.50766 54.3666 0.168767C56.069 -0.170127 57.8337 0.00380552 59.4373 0.668569C61.041 1.33333 62.4116 2.45907 63.376 3.90343C64.3404 5.34778 64.8551 7.04588 64.8551 8.78299C64.8524 11.1116 63.9269 13.344 62.2816 14.9906C60.6363 16.6371 58.4056 17.5633 56.0788 17.566ZM56.0788 2.50656C54.8384 2.50656 53.6258 2.87467 52.5944 3.56433C51.5631 4.254 50.7592 5.23424 50.2845 6.38111C49.8098 7.52797 49.6856 8.78995 49.9276 10.0075C50.1696 11.225 50.7669 12.3433 51.6441 13.2211C52.5212 14.0989 53.6387 14.6966 54.8552 14.9388C56.0718 15.181 57.3328 15.0567 58.4788 14.5817C59.6248 14.1066 60.6043 13.3021 61.2935 12.27C61.9826 11.2378 62.3504 10.0244 62.3504 8.78299C62.3484 7.11899 61.687 5.52371 60.5113 4.34708C59.3356 3.17046 57.7415 2.50855 56.0788 2.50656ZM9.68011 64C7.94432 64 6.24752 63.4849 4.80426 62.5198C3.36101 61.5547 2.23613 60.183 1.57187 58.5781C0.907611 56.9732 0.733811 55.2073 1.07245 53.5035C1.41108 51.7998 2.24694 50.2348 3.47433 49.0065C4.70172 47.7782 6.2655 46.9417 7.96794 46.6028C9.67037 46.2639 11.435 46.4378 13.0387 47.1026C14.6423 47.7674 16.013 48.8931 16.9773 50.3375C17.9417 51.7818 18.4564 53.4799 18.4564 55.217C18.4538 57.5456 17.5283 59.778 15.883 61.4246C14.2377 63.0712 12.0069 63.9974 9.68011 64ZM9.68011 48.9406C8.4397 48.9406 7.22714 49.3087 6.19577 49.9984C5.1644 50.688 4.36055 51.6683 3.88586 52.8151C3.41118 53.962 3.28698 55.224 3.52897 56.4415C3.77096 57.659 4.36828 58.7774 5.24539 59.6551C6.12249 60.5329 7.23999 61.1307 8.45657 61.3728C9.67315 61.615 10.9342 61.4907 12.0802 61.0157C13.2262 60.5406 14.2057 59.7362 14.8948 58.704C15.5839 57.6719 15.9518 56.4584 15.9518 55.217C15.9498 53.553 15.2884 51.9577 14.1126 50.7811C12.9369 49.6045 11.3428 48.9426 9.68011 48.9406ZM56.0788 64C54.343 64 52.6462 63.4849 51.2029 62.5198C49.7597 61.5547 48.6348 60.183 47.9705 58.5781C47.3063 56.9732 47.1325 55.2073 47.4711 53.5035C47.8097 51.7998 48.6456 50.2348 49.873 49.0065C51.1004 47.7782 52.6642 46.9417 54.3666 46.6028C56.069 46.2639 57.8337 46.4378 59.4373 47.1026C61.041 47.7674 62.4116 48.8931 63.376 50.3375C64.3404 51.7818 64.8551 53.4799 64.8551 55.217C64.8524 57.5456 63.9269 59.778 62.2816 61.4246C60.6363 63.0712 58.4056 63.9974 56.0788 64ZM56.0788 48.9406C54.8384 48.9406 53.6258 49.3087 52.5944 49.9984C51.5631 50.688 50.7592 51.6683 50.2845 52.8151C49.8098 53.962 49.6856 55.224 49.9276 56.4415C50.1696 57.659 50.7669 58.7774 51.6441 59.6551C52.5212 60.5329 53.6387 61.1307 54.8552 61.3728C56.0718 61.615 57.3328 61.4907 58.4788 61.0157C59.6248 60.5406 60.6043 59.7362 61.2935 58.704C61.9826 57.6719 62.3504 56.4584 62.3504 55.217C62.3488 53.5529 61.6875 51.9575 60.5117 50.7808C59.3359 49.604 57.7416 48.9423 56.0788 48.9406Z" fill="#EADEDA"/>
<path d="M48.5546 10.0363H17.2038C16.8717 10.0363 16.5532 9.90424 16.3183 9.66921C16.0835 9.43417 15.9515 9.11539 15.9515 8.783C15.9515 8.45061 16.0835 8.13184 16.3183 7.8968C16.5532 7.66177 16.8717 7.52972 17.2038 7.52972H48.5546C48.8867 7.52972 49.2052 7.66177 49.4401 7.8968C49.675 8.13184 49.8069 8.45061 49.8069 8.783C49.8069 9.11539 49.675 9.43417 49.4401 9.66921C49.2052 9.90424 48.8867 10.0363 48.5546 10.0363ZM48.5546 55.9678H17.2038C16.8717 55.9678 16.5532 55.8357 16.3183 55.6007C16.0835 55.3656 15.9515 55.0469 15.9515 54.7145C15.9515 54.3821 16.0835 54.0633 16.3183 53.8283C16.5532 53.5932 16.8717 53.4612 17.2038 53.4612H48.5546C48.8867 53.4612 49.2052 53.5932 49.4401 53.8283C49.675 54.0633 49.8069 54.3821 49.8069 54.7145C49.8069 55.0469 49.675 55.3656 49.4401 55.6007C49.2052 55.8357 48.8867 55.9678 48.5546 55.9678ZM46.6736 33.128C46.3414 33.128 46.0229 32.9959 45.788 32.7609C45.5532 32.5259 45.4212 32.2071 45.4212 31.8747C45.4212 31.5423 45.5532 31.2235 45.788 30.9885C46.0229 30.7535 46.3414 30.6214 46.6736 30.6214C48.835 30.6188 50.9071 29.7583 52.4354 28.2288C53.9638 26.6993 54.8236 24.6256 54.8262 22.4626V16.3127C54.8262 15.9803 54.9582 15.6615 55.193 15.4265C55.4279 15.1915 55.7464 15.0594 56.0785 15.0594C56.4107 15.0594 56.7292 15.1915 56.9641 15.4265C57.1989 15.6615 57.3309 15.9803 57.3309 16.3127V22.4626C57.3275 25.2902 56.2037 28.001 54.2058 30.0005C52.2078 31.9999 49.499 33.1247 46.6736 33.128ZM9.60975 48.9419C9.27761 48.9419 8.95908 48.8098 8.72422 48.5748C8.48936 48.3397 8.35742 48.021 8.35742 47.6886V41.2868C8.36074 38.4592 9.48462 35.7483 11.4825 33.7489C13.4804 31.7495 16.1892 30.6247 19.0147 30.6214H19.0848C19.417 30.6214 19.7355 30.7535 19.9704 30.9885C20.2052 31.2235 20.3372 31.5423 20.3372 31.8747C20.3372 32.2071 20.2052 32.5259 19.9704 32.7609C19.7355 32.9959 19.417 33.128 19.0848 33.128H19.0147C16.8532 33.1303 14.7809 33.9906 13.2525 35.5202C11.7241 37.0498 10.8644 39.1237 10.8621 41.2868V47.6886C10.8621 48.021 10.7301 48.3397 10.4953 48.5748C10.2604 48.8098 9.94188 48.9419 9.60975 48.9419Z" fill="#EADEDA"/>
</g>
<defs>
<clipPath id="clip0_166_229">
<rect width="63.9513" height="64" fill="white" transform="translate(0.903809)"/>
</clipPath>
</defs>
</svg>
